<svg width="200" height="200" viewBox="0 0 200 200" fill="none" xmlns="http://www.w3.org/2000/svg">
<path d="M28 60V58.5C27.5156 58.5 27.061 58.7339 26.7794 59.1281L28 60ZM47 60L48.2206 59.1281C47.939 58.7339 47.4844 58.5 47 58.5V60ZM36 162C36 162.828 36.6716 163.5 37.5 163.5C38.3284 163.5 39 162.828 39 162H36ZM27 92.5L27.8073 93.7642C28.2464 93.4838 28.5085 92.9957 28.4998 92.4748C28.491 91.954 28.2127 91.4749 27.7645 91.2094L27 92.5ZM49.0968 114.5L50.594 114.592L50.594 114.592L49.0968 114.5ZM46.1936 116L45.505 114.667C44.9758 114.941 44.6585 115.502 44.6966 116.096C44.7348 116.691 45.1211 117.206 45.681 117.41L46.1936 116ZM48.3939 126L49.8911 126.092L49.8911 126.092L48.3939 126ZM45 126V124.5C44.3581 124.5 43.7873 124.908 43.5802 125.516C43.3731 126.124 43.5756 126.796 44.0839 127.188L45 126ZM24.6327 67.2949L29.2206 60.8719L26.7794 59.1281L22.1915 65.5512L24.6327 67.2949ZM45.7794 60.8719L50.3673 67.295L52.8085 65.5513L48.2206 59.1281L45.7794 60.8719ZM37.5 61.5H47V58.5H37.5V61.5ZM36 60V162H39V60H36ZM25.9649 90.9084L24.5405 67.6161L21.5461 67.7992L22.9705 91.0916L25.9649 90.9084ZM23.7033 92.2906L26.2355 93.7906L27.7645 91.2094L25.2322 89.7094L23.7033 92.2906ZM30.3682 162.908L26.1484 93.9084L23.154 94.0916L27.3738 163.092L30.3682 162.908ZM26.1484 93.9084L25.9649 90.9084L22.9705 91.0916L23.154 94.0916L26.1484 93.9084ZM26.1927 91.2358L23.8439 92.7358L25.4586 95.2642L27.8073 93.7642L26.1927 91.2358ZM50.4595 67.6161L47.5996 114.408L50.594 114.592L53.454 67.7991L50.4595 67.6161ZM48.4082 113.167L45.505 114.667L46.8821 117.333L49.7853 115.833L48.4082 113.167ZM47.5996 114.408L47.4468 116.908L50.4412 117.092L50.594 114.592L47.5996 114.408ZM45.681 117.41L48.4314 118.41L49.4565 115.59L46.7061 114.59L45.681 117.41ZM47.4468 116.908L46.8967 125.908L49.8911 126.092L50.4412 117.092L47.4468 116.908ZM48.3939 124.5H45V127.5H48.3939V124.5ZM46.8967 125.908L46.7439 128.408L49.7383 128.592L49.8911 126.092L46.8967 125.908ZM46.7439 128.408L44.6963 161.908L47.6908 162.092L49.7383 128.592L46.7439 128.408ZM44.0839 127.188L47.3249 129.688L49.1572 127.312L45.9161 124.812L44.0839 127.188ZM28 61.5H32.75V58.5H28V61.5ZM32.75 61.5H37.5V58.5H32.75V61.5ZM50.3673 67.295C50.434 67.3883 50.4665 67.5017 50.4595 67.6161L53.454 67.7991C53.5029 66.998 53.2751 66.2044 52.8085 65.5513L50.3673 67.295ZM22.1915 65.5512C21.7249 66.2044 21.4971 66.998 21.5461 67.7992L24.5405 67.6161C24.5335 67.5016 24.566 67.3883 24.6327 67.2949L22.1915 65.5512Z" fill="#99AED1"/>
<path d="M45 21V29.5M30 21V35M30 48.5V51C19.7177 53.1699 14.4984 55.202 6 60V66C14.167 63.2762 18.9896 60.4463 28 60H37.5H47C55.6038 60.3645 60.4377 63.3024 69 66V60C60.0565 55.0826 54.8877 53.203 45 51V43.5M30 48.5L45 43.5M30 48.5V42M45 43.5V37M45 37L30 42M45 37V29.5M30 42V35M30 35L45 29.5" stroke="#5674AA" stroke-width="3" stroke-linejoin="round"/>
<circle cx="37.5" cy="15.5" r="9.5" stroke="#5674AA" stroke-width="3"/>
<circle cx="37.5" cy="15.5" r="2.5" stroke="#99AED1" stroke-width="3"/>
<path d="M62.5 142.5H99.5M63 149.5H105.5M93.5 174.5H160.5M160.5 181.5H107.5" stroke="#99AED1" stroke-width="3" stroke-linecap="round"/>
<path d="M160.706 174.5L159.223 174.27L160.706 174.5ZM160.756 181.5L159.276 181.745L160.756 181.5ZM61.5 176.5L60.8292 177.842C61.2942 178.074 61.8464 178.049 62.2886 177.776C62.7308 177.503 63 177.02 63 176.5H61.5ZM55.5 173.5L56.1708 172.158C55.7485 171.947 55.2515 171.947 54.8292 172.158L55.5 173.5ZM49.5 176.5H48C48 177.02 48.2692 177.503 48.7114 177.776C49.1536 178.049 49.7058 178.074 50.1708 177.842L49.5 176.5ZM33 163.5H164V160.5H33V163.5ZM164 192.5H33V195.5H164V192.5ZM164 166.5H162.5V169.5H164V166.5ZM33 189.5H162.5V186.5H33V189.5ZM162.5 189.5H164V186.5H162.5V189.5ZM161.096 167.473C160.168 169.944 159.55 172.159 159.223 174.27L162.188 174.73C162.476 172.871 163.029 170.859 163.904 168.527L161.096 167.473ZM159.223 174.27C158.821 176.866 158.865 179.262 159.276 181.745L162.236 181.255C161.874 179.068 161.838 176.992 162.188 174.73L159.223 174.27ZM159.276 181.745C159.63 183.888 160.255 186.078 161.081 188.486L163.919 187.514C163.12 185.184 162.552 183.169 162.236 181.255L159.276 181.745ZM49.5 166.5H33V169.5H49.5V166.5ZM51 168V166.5H48V168H51ZM51.5 166H59.5V163H51.5V166ZM162.5 166.5H61.5V169.5H162.5V166.5ZM60 166.5V168H63V166.5H60ZM60 168V176.5H63V168H60ZM62.1708 175.158L56.1708 172.158L54.8292 174.842L60.8292 177.842L62.1708 175.158ZM54.8292 172.158L48.8292 175.158L50.1708 177.842L56.1708 174.842L54.8292 172.158ZM51 176.5V168H48V176.5H51ZM21.5 178C21.5 184.351 26.6487 189.5 33 189.5V186.5C28.3056 186.5 24.5 182.694 24.5 178H21.5ZM24.5 178C24.5 173.306 28.3056 169.5 33 169.5V166.5C26.6487 166.5 21.5 171.649 21.5 178H24.5ZM168.5 191C168.5 188.515 166.485 186.5 164 186.5V189.5C164.828 189.5 165.5 190.172 165.5 191H168.5ZM59.5 166C59.7761 166 60 166.224 60 166.5H63C63 164.567 61.433 163 59.5 163V166ZM165.5 165C165.5 165.828 164.828 166.5 164 166.5V169.5C166.485 169.5 168.5 167.485 168.5 165H165.5ZM51 166.5C51 166.224 51.2239 166 51.5 166V163C49.567 163 48 164.567 48 166.5H51ZM33 192.5C24.9919 192.5 18.5 186.008 18.5 178H15.5C15.5 187.665 23.335 195.5 33 195.5V192.5ZM164 195.5C166.485 195.5 168.5 193.485 168.5 191H165.5C165.5 191.828 164.828 192.5 164 192.5V195.5ZM164 163.5C164.828 163.5 165.5 164.172 165.5 165H168.5C168.5 162.515 166.485 160.5 164 160.5V163.5ZM33 160.5C23.335 160.5 15.5 168.335 15.5 178H18.5C18.5 169.992 24.9919 163.5 33 163.5V160.5Z" fill="#5674AA"/>
<path d="M61.5 176.5L60.8292 177.842C61.2942 178.074 61.8464 178.049 62.2886 177.776C62.7308 177.503 63 177.02 63 176.5H61.5ZM55.5 173.5L56.1708 172.158C55.7485 171.947 55.2515 171.947 54.8292 172.158L55.5 173.5ZM49.5 176.5H48C48 177.02 48.2692 177.503 48.7114 177.776C49.1536 178.049 49.7058 178.074 50.1708 177.842L49.5 176.5ZM51 168V166.5H48V168H51ZM51.5 166H59.5V163H51.5V166ZM60 166.5V168H63V166.5H60ZM60 168V176.5H63V168H60ZM62.1708 175.158L56.1708 172.158L54.8292 174.842L60.8292 177.842L62.1708 175.158ZM54.8292 172.158L48.8292 175.158L50.1708 177.842L56.1708 174.842L54.8292 172.158ZM51 176.5V168H48V176.5H51ZM59.5 166C59.7761 166 60 166.224 60 166.5H63C63 164.567 61.433 163 59.5 163V166ZM51 166.5C51 166.224 51.2239 166 51.5 166V163C49.567 163 48 164.567 48 166.5H51Z" fill="#99AED1"/>
<path d="M62.2944 142.5L63.7767 142.27L62.2944 142.5ZM62.2443 149.5L63.7242 149.745L62.2443 149.5ZM131.5 144.5L132.171 145.842C131.706 146.074 131.154 146.049 130.711 145.776C130.269 145.503 130 145.02 130 144.5H131.5ZM137.5 141.5L136.829 140.158C137.251 139.947 137.749 139.947 138.171 140.158L137.5 141.5ZM143.5 144.5H145C145 145.02 144.731 145.503 144.289 145.776C143.846 146.049 143.294 146.074 142.829 145.842L143.5 144.5ZM160 131.5H59V128.5H160V131.5ZM59 160.5H160V163.5H59V160.5ZM59 134.5H60.5V137.5H59V134.5ZM160 157.5H60.5V154.5H160V157.5ZM60.5 157.5H59V154.5H60.5V157.5ZM61.9043 135.473C62.8321 137.944 63.4498 140.159 63.7767 142.27L60.812 142.73C60.5242 140.871 59.971 138.859 59.0957 136.527L61.9043 135.473ZM63.7767 142.27C64.1786 144.866 64.1348 147.262 63.7242 149.745L60.7644 149.255C61.1262 147.068 61.1624 144.992 60.812 142.73L63.7767 142.27ZM63.7242 149.745C63.3697 151.888 62.7446 154.078 61.9189 156.486L59.0811 155.514C59.8796 153.184 60.4479 151.169 60.7644 149.255L63.7242 149.745ZM143.5 134.5H160V137.5H143.5V134.5ZM142 136V134.5H145V136H142ZM141.5 134H133.5V131H141.5V134ZM60.5 134.5H131.5V137.5H60.5V134.5ZM133 134.5V136H130V134.5H133ZM133 136V144.5H130V136H133ZM130.829 143.158L136.829 140.158L138.171 142.842L132.171 145.842L130.829 143.158ZM138.171 140.158L144.171 143.158L142.829 145.842L136.829 142.842L138.171 140.158ZM142 144.5V136H145V144.5H142ZM171.5 146C171.5 152.351 166.351 157.5 160 157.5V154.5C164.694 154.5 168.5 150.694 168.5 146H171.5ZM168.5 146C168.5 141.306 164.694 137.5 160 137.5V134.5C166.351 134.5 171.5 139.649 171.5 146H168.5ZM54.5 159C54.5 156.515 56.5147 154.5 59 154.5V157.5C58.1716 157.5 57.5 158.172 57.5 159H54.5ZM133.5 134C133.224 134 133 134.224 133 134.5H130C130 132.567 131.567 131 133.5 131V134ZM57.5 133C57.5 133.828 58.1716 134.5 59 134.5V137.5C56.5147 137.5 54.5 135.485 54.5 133H57.5ZM142 134.5C142 134.224 141.776 134 141.5 134V131C143.433 131 145 132.567 145 134.5H142ZM160 160.5C168.008 160.5 174.5 154.008 174.5 146H177.5C177.5 155.665 169.665 163.5 160 163.5V160.5ZM59 163.5C56.5147 163.5 54.5 161.485 54.5 159H57.5C57.5 159.828 58.1716 160.5 59 160.5V163.5ZM59 131.5C58.1716 131.5 57.5 132.172 57.5 133H54.5C54.5 130.515 56.5147 128.5 59 128.5V131.5ZM160 128.5C169.665 128.5 177.5 136.335 177.5 146H174.5C174.5 137.992 168.008 131.5 160 131.5V128.5Z" fill="#5674AA"/>
<path d="M143.5 144.5L142.829 145.842C143.294 146.074 143.846 146.049 144.289 145.776C144.731 145.503 145 145.02 145 144.5H143.5ZM137.5 141.5L138.171 140.158C137.749 139.947 137.251 139.947 136.829 140.158L137.5 141.5ZM131.5 144.5H130C130 145.02 130.269 145.503 130.711 145.776C131.154 146.049 131.706 146.074 132.171 145.842L131.5 144.5ZM133 136V134.5H130V136H133ZM133.5 134H141.5V131H133.5V134ZM142 134.5V136H145V134.5H142ZM142 136V144.5H145V136H142ZM144.171 143.158L138.171 140.158L136.829 142.842L142.829 145.842L144.171 143.158ZM136.829 140.158L130.829 143.158L132.171 145.842L138.171 142.842L136.829 140.158ZM133 144.5V136H130V144.5H133ZM141.5 134C141.776 134 142 134.224 142 134.5H145C145 132.567 143.433 131 141.5 131V134ZM133 134.5C133 134.224 133.224 134 133.5 134V131C131.567 131 130 132.567 130 134.5H133Z" fill="#99AED1"/>
<path d="M101.5 73H106.5M111.5 73H106.5M106.5 73V60" stroke="#99AED1" stroke-width="3" stroke-linecap="round"/>
<path d="M162 38H167" stroke="#99AED1" stroke-width="3" stroke-linecap="round"/>
<path d="M143 43H148" stroke="#99AED1" stroke-width="3" stroke-linecap="round"/>
<path d="M114 112H119" stroke="#99AED1" stroke-width="3" stroke-linecap="round"/>
<path d="M82 43H87" stroke="#99AED1" stroke-width="3" stroke-linecap="round"/>
<path d="M89 29L89 34" stroke="#99AED1" stroke-width="3" stroke-linecap="round"/>
<path d="M99 30L99 40" stroke="#99AED1" stroke-width="3" stroke-linecap="round"/>
<path d="M137 29L137 34" stroke="#99AED1" stroke-width="3" stroke-linecap="round"/>
<path d="M83 67H88" stroke="#99AED1" stroke-width="3" stroke-linecap="round"/>
<path d="M83.5 77.5H93.5" stroke="#99AED1" stroke-width="3" stroke-linecap="round"/>
<path d="M84 119H89" stroke="#99AED1" stroke-width="3" stroke-linecap="round"/>
<path d="M176 47H181M186 47H181M181 47V52.5" stroke="#99AED1" stroke-width="3" stroke-linecap="round"/>
<path d="M138 58H148" stroke="#99AED1" stroke-width="3" stroke-linecap="round"/>
<path d="M176 178H186" stroke="#99AED1" stroke-width="3" stroke-linecap="round"/>
<path d="M181 163L186 163" stroke="#99AED1" stroke-width="3" stroke-linecap="round"/>
<path d="M176 76H186" stroke="#99AED1" stroke-width="3" stroke-linecap="round"/>
<path d="M106 86H111M126.5 86H111M111 86V91.5" stroke="#99AED1" stroke-width="3" stroke-linecap="round"/>
<path d="M104 106.5H94V100" stroke="#99AED1" stroke-width="3" stroke-linecap="round"/>
<path d="M82 130V30C82 28.8954 82.8954 28 84 28H107C108.105 28 109 28.8954 109 30V46C109 47.1046 109.895 48 111 48H120C121.105 48 122 47.1046 122 46V30C122 28.8954 122.895 28 124 28H146C147.105 28 148 28.8954 148 30V46C148 47.1046 148.895 48 150 48H159C160.105 48 161 47.1046 161 46V30C161 28.8954 161.895 28 163 28H186C187.105 28 188 28.8954 188 30V192C188 193.105 187.105 194 186 194H165.5" stroke="#5674AA" stroke-width="3"/>
<path d="M133 115C133 113.895 133.895 113 135 113H171C172.105 113 173 113.895 173 115V118C173 119.105 172.105 120 171 120H135C133.895 120 133 119.105 133 118V115Z" stroke="#5674AA" stroke-width="3"/>
<path d="M137 87C137 78.1634 144.163 71 153 71V71C161.837 71 169 78.1634 169 87V113H137V87Z" stroke="#5674AA" stroke-width="3"/>
<path d="M142 87C142 80.9249 146.925 76 153 76V76C159.075 76 164 80.9249 164 87V113H142V87Z" stroke="#5674AA" stroke-width="3"/>
<path d="M122 46L122 56" stroke="#5674AA" stroke-width="3" stroke-linecap="round"/>
<path d="M161 42L161 52" stroke="#5674AA" stroke-width="3" stroke-linecap="round"/>
<path d="M138.5 79.5L143.5 83M144 73.5L147 78.5M150.5 71L151.5 76.5M157 71.5L156 76.5M162.5 74L160 78.5M167 78.5L163 81.5M169 84.5L164 86M169 90.5H164M169 96H164M169 101.5H164M169 106L164 106.5M142 107H137M137 102H142M142 97L137 96.5V91L142 91.5M137 85L141.5 86.5" stroke="#5674AA" stroke-width="3"/>
</svg>
