<svg width="200" height="200" viewBox="0 0 200 200" fill="none" xmlns="http://www.w3.org/2000/svg">
<path d="M74 44.5H72.5V45.4492L73.3579 45.8556L74 44.5ZM83.5 49L84.0821 50.3825C84.6273 50.1529 84.9867 49.6243 84.9996 49.0329C85.0126 48.4415 84.6768 47.8976 84.1421 47.6444L83.5 49ZM74 53L73.4179 51.6175L72.5 52.004V53H74ZM74 59.5H72.5V60.5302L73.4615 60.9L74 59.5ZM80.5 62L81.1286 63.3619C81.6759 63.1093 82.0189 62.5536 81.9992 61.9511C81.9795 61.3486 81.6011 60.8164 81.0385 60.6L80.5 62ZM74 65L73.3714 63.6381L72.5 64.0403V65H74ZM167 71L167.505 72.4126C168.101 72.1994 168.5 71.6339 168.5 71H167ZM160 73.5L159.495 72.0874C158.882 72.3066 158.48 72.8971 158.501 73.5485C158.522 74.2 158.961 74.7632 159.588 74.9423L160 73.5ZM167 75.5H168.5C168.5 74.8303 168.056 74.2417 167.412 74.0577L167 75.5ZM86 24.5H179V21.5H86V24.5ZM155 187.5H78V190.5H155V187.5ZM75.5 44.5V35H72.5V44.5H75.5ZM84.1421 47.6444L74.6421 43.1444L73.3579 45.8556L82.8579 50.3556L84.1421 47.6444ZM74.5821 54.3825L84.0821 50.3825L82.9179 47.6175L73.4179 51.6175L74.5821 54.3825ZM75.5 59.5V53H72.5V59.5H75.5ZM81.0385 60.6L74.5385 58.1L73.4615 60.9L79.9615 63.4L81.0385 60.6ZM75.5 80V65H72.5V80H75.5ZM74.6286 66.3619L81.1286 63.3619L79.8714 60.6381L73.3714 63.6381L74.6286 66.3619ZM165.5 35V71H168.5V35H165.5ZM166.495 69.5874L159.495 72.0874L160.505 74.9126L167.505 72.4126L166.495 69.5874ZM159.588 74.9423L166.588 76.9423L167.412 74.0577L160.412 72.0577L159.588 74.9423ZM165.5 124.5V177H168.5V124.5H165.5ZM165.5 75.5V86H168.5V75.5H165.5ZM179 21.5C171.544 21.5 165.5 27.5442 165.5 35H168.5C168.5 29.201 173.201 24.5 179 24.5V21.5ZM155 190.5C162.456 190.5 168.5 184.456 168.5 177H165.5C165.5 182.799 160.799 187.5 155 187.5V190.5ZM86 21.5C78.5442 21.5 72.5 27.5442 72.5 35H75.5C75.5 29.201 80.201 24.5 86 24.5V21.5Z" fill="#5674AA"/>
<path d="M134.5 165V163.5C133.907 163.5 133.37 163.849 133.129 164.391L134.5 165ZM132.5 169.5L131.129 170.109C131.37 170.651 131.907 171 132.5 171C133.093 171 133.63 170.651 133.871 170.109L132.5 169.5ZM130.5 165L131.871 164.391C131.63 163.849 131.093 163.5 130.5 163.5V165ZM123 165V163.5C122.354 163.5 121.781 163.913 121.577 164.526L123 165ZM121 171L119.615 171.577C119.856 172.154 120.43 172.522 121.055 172.499C121.68 172.476 122.225 172.068 122.423 171.474L121 171ZM118.5 165L119.885 164.423C119.652 163.864 119.106 163.5 118.5 163.5V165ZM155 187.5C149.201 187.5 144.5 182.799 144.5 177H141.5C141.5 184.456 147.544 190.5 155 190.5V187.5ZM144.5 177V167H141.5V177H144.5ZM141 163.5H134.5V166.5H141V163.5ZM133.129 164.391L131.129 168.891L133.871 170.109L135.871 165.609L133.129 164.391ZM133.871 168.891L131.871 164.391L129.129 165.609L131.129 170.109L133.871 168.891ZM130.5 163.5H123V166.5H130.5V163.5ZM121.577 164.526L119.577 170.526L122.423 171.474L124.423 165.474L121.577 164.526ZM122.385 170.423L119.885 164.423L117.115 165.577L119.615 171.577L122.385 170.423ZM118.5 163.5H96.5V166.5H118.5V163.5ZM144.5 167C144.5 165.067 142.933 163.5 141 163.5V166.5C141.276 166.5 141.5 166.724 141.5 167H144.5Z" fill="#5674AA"/>
<path d="M183 47.5L184.413 46.9955C184.187 46.3641 183.57 45.9591 182.901 46.0033C182.232 46.0475 181.674 46.5302 181.533 47.1857L183 47.5ZM181.839 52.9191L180.372 52.6048L181.839 52.9191ZM185.026 53.1727L186.439 52.6682L185.026 53.1727ZM168.5 35C168.5 29.201 173.201 24.5 179 24.5V21.5C171.544 21.5 165.5 27.5442 165.5 35H168.5ZM179 24.5C184.799 24.5 189.5 29.201 189.5 35H192.5C192.5 27.5442 186.456 21.5 179 21.5V24.5ZM189.5 35V52.5H192.5V35H189.5ZM189 53H186.909V56H189V53ZM186.439 52.6682L184.413 46.9955L181.587 48.0045L183.613 53.6772L186.439 52.6682ZM181.533 47.1857L180.372 52.6048L183.305 53.2334L184.467 47.8143L181.533 47.1857ZM179.883 53H167V56H179.883V53ZM180.372 52.6048C180.323 52.8353 180.119 53 179.883 53V56C181.534 56 182.96 54.8471 183.305 53.2334L180.372 52.6048ZM186.909 53C186.698 53 186.51 52.8672 186.439 52.6682L183.613 53.6772C184.111 55.0702 185.43 56 186.909 56V53ZM189.5 52.5C189.5 52.7761 189.276 53 189 53V56C190.933 56 192.5 54.433 192.5 52.5H189.5Z" fill="#5674AA"/>
<path d="M92 45H123.5M133.5 45H148M92 54H108.5M120 54H133.5M143 54H148" stroke="#99AED1" stroke-width="3" stroke-linecap="round" stroke-linejoin="round"/>
<path d="M136.5 144H151M131 153H139.5M146 153H151" stroke="#99AED1" stroke-width="3" stroke-linecap="round" stroke-linejoin="round"/>
<path d="M90 67C90 67 90.3824 67.7647 90.7693 68.299C91.1563 68.8333 92.019 70.0776 92.6765 70.8235C93.9188 72.233 95.2395 73.6385 96.5 75.0294C97.5558 76.1944 98.3669 77.1211 99.4629 78.2506C99.8485 78.648 100.197 79.0638 100.567 79.4728C100.654 79.5687 100.706 79.6176 100.706 79.6176" stroke="#5674AA" stroke-width="3" stroke-linecap="round"/>
<path d="M100.706 67C100.706 67 100.428 67.3553 100.177 67.6272C99.3649 68.504 98.671 69.4853 97.8754 70.3785C96.2446 72.2094 94.7542 74.1546 93.1605 76.014C92.2544 77.071 91.191 77.9739 90.4603 79.1743C90.2949 79.4461 90 80 90 80" stroke="#5674AA" stroke-width="3" stroke-linecap="round"/>
<path d="M116.492 159.5C116.496 155.431 123.3 133.711 134.035 120.057C147.455 102.99 160.487 89.1061 172.393 82.9038C181.917 77.942 191.163 75.4102 194.595 74.7645C192.898 81.4585 190.2 91.4374 185.121 101.342M116.492 159.5L125.028 146.759L131.826 133.553C133.497 133.688 140.155 134.094 144.259 134.067C146.735 134.051 148.956 133.917 155.108 131.808C155.767 131.505 150.245 121.669 150.94 121.299C151.512 120.995 159.481 129.221 160.076 128.87C163.638 126.766 165.884 125.006 170.16 120.814C170.577 120.405 160.321 111.209 160.744 110.777C161.226 110.284 174.099 117.333 174.561 116.827C177.366 113.751 179.792 110.446 181.898 107.053C182.398 106.247 170.2 100.63 170.665 99.8165M116.492 159.5C119.117 149.715 129.076 125.772 147.91 108.278C166.745 90.7828 173.119 87.1684 173.952 87.5481M185.121 101.342C184.559 102.438 171.287 98.7267 170.665 99.8165M185.121 101.342L170.665 99.8165" stroke="#5674AA" stroke-width="3" stroke-linecap="round" stroke-linejoin="round"/>
<path d="M107 64.5V84.5M107 132.5V117.5M130.5 64.5V84.5M130.5 113V102.5M107 84.5H90M107 84.5H130.5M107 84.5V102.5M130.5 84.5H149.5M130.5 84.5V102.5M107 102.5H95.5M107 102.5H130.5M107 102.5V117.5M130.5 102.5H140.5M107 117.5H97.5M107 117.5H123" stroke="#5674AA" stroke-width="3" stroke-linecap="round" stroke-linejoin="round"/>
<path d="M113.5 91H125M113.5 96H117.5M122 96H123.5M113.5 109.5H118.5M137 91H142" stroke="#99AED1" stroke-width="3" stroke-linecap="round" stroke-linejoin="round"/>
<path d="M25.5797 186C23.2924 179.114 22 171.292 22 162.998C22 147.791 25.1437 134.17 32 125C34.6041 121.517 38 116.633 42 116.633C48.9602 116.633 50.7736 129.876 51.1929 141C51.3183 144.326 47.4979 152.463 47.9389 155C48.5659 158.606 54 160.998 54 160.998C54 160.998 59.4342 158.606 60.0611 155C60.5021 152.463 56.6817 144.326 56.8071 141C57.2264 129.876 59.0399 116.634 66 116.633C70 116.633 73.0869 120.471 75.5 123.5C82.8004 132.664 86 147.228 86 162.998C86 171.787 84.5487 180.047 82 187.223" stroke="#99AED1" stroke-width="3"/>
<path d="M17 118.5L23.5 120.5M22 126.5L28.5 129M20.5 134L15.5 133M19.5 140L23.5 143M18 147L14 148M18 154L22 155.5M17 162L13 160.5M17 168.5L22 172" stroke="#99AED1" stroke-width="3" stroke-linecap="round" stroke-linejoin="round"/>
<path d="M90.5 118.5L84 120.5M85.5 126.5L79 129M87 134L92 133M88 140L84 143M89.5 147L93.5 148M89.5 154L85.5 155.5M90.5 162L94.5 160.5M90.5 168.5L85.5 172" stroke="#99AED1" stroke-width="3" stroke-linecap="round" stroke-linejoin="round"/>
<ellipse cx="54" cy="112.5" rx="2" ry="1.5" fill="#99AED1"/>
<ellipse cx="54" cy="153.5" rx="2" ry="1.5" fill="#99AED1"/>
<ellipse cx="29" cy="109.5" rx="2" ry="1.5" fill="#99AED1"/>
<ellipse cx="79" cy="109.5" rx="2" ry="1.5" fill="#99AED1"/>
<path d="M18.2758 111.5C17.3618 116.375 16.6463 121.827 16 128L11 174C24.6176 187.815 33.8054 192.516 54 194C75.4566 192.04 85.0049 187.764 97 174L92 128C91.2731 121.822 90.5132 116.37 89.5823 111.5M18.2758 111.5C25.3505 113.333 42.4 117 54 117C65.6 117 82.5549 113.333 89.5823 111.5M18.2758 111.5C18.7754 108.835 19.3344 106.343 19.9737 104M89.5823 111.5C89.0724 108.833 88.5113 106.341 87.8762 104M19.9737 104C25.8158 105.333 40.8 108 54 108C67.2 108 82.0841 105.333 87.8762 104M19.9737 104C24.0945 88.8989 31.5544 80.0049 48 71.0735M87.8762 104C83.7598 88.8264 76.536 79.9979 60.032 71.0735M48 71.0735C49.8798 70.0526 51.877 59.0312 54 58C56.138 59.0322 58.1456 70.0534 60.032 71.0735M48 71.0735V71.0735C49.2188 77.762 58.8069 77.7609 60.032 71.0735V71.0735" stroke="#5674AA" stroke-width="3" stroke-linejoin="round"/>
</svg>
